<?xml version="1.0" encoding="iso-8859-1"?>
<!-- Generator: Adobe Illustrator 19.0.0, SVG Export Plug-In . SVG Version: 6.00 Build 0)  -->
<svg version="1.1" id="Layer_1" xmlns="http://www.w3.org/2000/svg" xmlns:xlink="http://www.w3.org/1999/xlink" x="0px" y="0px"
	 viewBox="0 0 512 512" style="enable-background:new 0 0 512 512;" xml:space="preserve">
<circle style="fill:#4E901E;" cx="146.625" cy="262.661" r="139.021"/>
<g>
	<path style="fill:#47821C;" d="M146.62,123.65c-15.852,0-31.08,2.659-45.273,7.546C71.453,164.245,53.221,208.032,53.221,256
		c0,57.529,26.224,109.043,67.34,143.231c8.442,1.602,17.151,2.449,26.06,2.449c76.777,0,139.016-62.24,139.016-139.016
		S223.396,123.65,146.62,123.65z"/>
	<path style="fill:#47821C;" d="M30.409,274.149c-1.998,0-3.954-0.811-5.373-2.22c-1.419-1.419-2.23-3.376-2.23-5.384
		c0-1.997,0.811-3.964,2.23-5.373c1.418-1.419,3.375-2.23,5.373-2.23c2.006,0,3.964,0.811,5.384,2.23
		c1.41,1.419,2.22,3.376,2.22,5.373c0,2.007-0.811,3.964-2.22,5.384C34.373,273.337,32.415,274.149,30.409,274.149z"/>
	<path style="fill:#47821C;" d="M43.055,216.458c-1.998,0-3.954-0.811-5.373-2.22c-1.419-1.419-2.23-3.376-2.23-5.384
		c0-1.997,0.811-3.964,2.23-5.373c1.418-1.419,3.375-2.23,5.373-2.23c2.006,0,3.964,0.811,5.384,2.23
		c1.41,1.419,2.22,3.376,2.22,5.373c0,2.007-0.811,3.964-2.22,5.384C47.02,215.647,45.062,216.458,43.055,216.458z"/>
	<path style="fill:#47821C;" d="M45.617,322.342c-1.998,0-3.954-0.811-5.373-2.22c-1.419-1.419-2.23-3.376-2.23-5.384
		c0-1.997,0.811-3.964,2.23-5.373c1.418-1.419,3.375-2.23,5.373-2.23c2.006,0,3.964,0.811,5.384,2.23
		c1.41,1.419,2.22,3.376,2.22,5.373c0,2.007-0.811,3.964-2.22,5.384C49.581,321.531,47.623,322.342,45.617,322.342z"/>
</g>
<path style="fill:#5EAC24;" d="M371.926,110.319h-132.47v291.362h132.47c72.858,0,132.47-59.612,132.47-132.47v-26.422
	C504.396,169.93,444.784,110.319,371.926,110.319z"/>
<g>
	<path style="fill:#4E901E;" d="M239.456,291.606v110.076h132.47c65.23,0,119.832-47.784,130.554-110.076L239.456,291.606
		L239.456,291.606z"/>
	<path style="fill:#4E901E;" d="M422.26,277.873c-1.998,0-3.954-0.811-5.373-2.22c-1.419-1.419-2.231-3.376-2.231-5.384
		c0-1.997,0.811-3.964,2.231-5.373c1.418-1.419,3.375-2.23,5.373-2.23c2.006,0,3.964,0.811,5.384,2.23
		c1.41,1.419,2.22,3.376,2.22,5.373c0,2.007-0.811,3.964-2.22,5.384C426.224,277.062,424.267,277.873,422.26,277.873z"/>
	<path style="fill:#4E901E;" d="M470.462,263.604c-1.998,0-3.954-0.811-5.373-2.22c-1.419-1.419-2.23-3.376-2.23-5.384
		c0-1.997,0.811-3.964,2.23-5.373c1.418-1.419,3.375-2.23,5.373-2.23c2.006,0,3.964,0.811,5.384,2.23
		c1.41,1.419,2.22,3.376,2.22,5.373c0,2.007-0.811,3.964-2.22,5.384C474.426,262.793,472.47,263.604,470.462,263.604z"/>
	<path style="fill:#4E901E;" d="M409.924,235.901c-1.998,0-3.954-0.811-5.373-2.22c-1.419-1.419-2.23-3.376-2.23-5.384
		c0-1.997,0.811-3.964,2.23-5.373c1.418-1.419,3.375-2.23,5.373-2.23c2.006,0,3.964,0.811,5.384,2.23
		c1.41,1.419,2.22,3.376,2.22,5.373c0,2.007-0.811,3.964-2.22,5.384C413.889,235.09,411.932,235.901,409.924,235.901z"/>
	<path style="fill:#4E901E;" d="M470.462,212.47c-1.998,0-3.954-0.811-5.373-2.22c-1.419-1.419-2.23-3.376-2.23-5.384
		c0-1.997,0.811-3.964,2.23-5.373c1.418-1.419,3.375-2.23,5.373-2.23c2.006,0,3.964,0.811,5.384,2.23
		c1.41,1.419,2.22,3.376,2.22,5.373c0,2.007-0.811,3.964-2.22,5.384C474.426,211.659,472.47,212.47,470.462,212.47z"/>
	<path style="fill:#4E901E;" d="M450.915,235.602c-1.998,0-3.954-0.811-5.373-2.22c-1.419-1.419-2.23-3.376-2.23-5.384
		c0-1.997,0.811-3.964,2.23-5.373c1.418-1.419,3.375-2.23,5.373-2.23c2.006,0,3.964,0.811,5.384,2.23
		c1.41,1.419,2.22,3.376,2.22,5.373c0,2.007-0.811,3.964-2.22,5.384C454.879,234.791,452.921,235.602,450.915,235.602z"/>
	<path style="fill:#4E901E;" d="M429.864,204.567c-1.998,0-3.954-0.811-5.373-2.22c-1.419-1.419-2.23-3.376-2.23-5.384
		c0-1.997,0.811-3.964,2.23-5.373c1.418-1.419,3.375-2.23,5.373-2.23c2.006,0,3.964,0.811,5.384,2.23
		c1.41,1.419,2.22,3.376,2.22,5.373c0,2.007-0.811,3.964-2.22,5.384C433.828,203.756,431.87,204.567,429.864,204.567z"/>
	<path style="fill:#4E901E;" d="M450.915,180.324c-1.998,0-3.954-0.811-5.373-2.22c-1.419-1.419-2.23-3.376-2.23-5.384
		c0-1.997,0.811-3.964,2.23-5.373c1.418-1.419,3.375-2.23,5.373-2.23c2.006,0,3.964,0.811,5.384,2.23
		c1.41,1.419,2.22,3.376,2.22,5.373c0,2.007-0.811,3.964-2.22,5.384C454.879,179.513,452.921,180.324,450.915,180.324z"/>
	<path style="fill:#4E901E;" d="M388.781,184.289c-1.998,0-3.954-0.811-5.373-2.22c-1.419-1.419-2.23-3.376-2.23-5.384
		c0-1.997,0.811-3.964,2.23-5.373c1.418-1.419,3.375-2.23,5.373-2.23c2.006,0,3.964,0.811,5.384,2.23
		c1.41,1.419,2.22,3.376,2.22,5.373c0,2.007-0.811,3.964-2.22,5.384C392.747,183.477,390.789,184.289,388.781,184.289z"/>
	<path style="fill:#4E901E;" d="M414.656,151.794c-1.998,0-3.954-0.811-5.373-2.22c-1.419-1.419-2.23-3.376-2.23-5.384
		c0-1.997,0.811-3.964,2.23-5.373c1.418-1.419,3.375-2.23,5.373-2.23c2.006,0,3.964,0.811,5.384,2.23
		c1.41,1.419,2.22,3.376,2.22,5.373c0,2.007-0.811,3.964-2.22,5.384C418.62,150.983,416.663,151.794,414.656,151.794z"/>
	<path style="fill:#4E901E;" d="M368.019,144.19c-1.998,0-3.954-0.811-5.373-2.22c-1.419-1.419-2.23-3.376-2.23-5.384
		c0-1.997,0.811-3.964,2.23-5.373c1.418-1.419,3.375-2.23,5.373-2.23c2.006,0,3.964,0.811,5.384,2.23
		c1.41,1.419,2.22,3.376,2.22,5.373c0,2.007-0.811,3.964-2.22,5.384C371.983,143.379,370.025,144.19,368.019,144.19z"/>
</g>
<g>
	<path style="fill:#47821C;" d="M453.628,330.622c-3.443-2.405-4.534-6.99-2.252-10.515c1.442-2.228,2.806-4.545,4.052-6.885
		c1.975-3.705,6.579-5.111,10.287-3.136c3.708,1.975,5.11,6.58,3.136,10.287c-1.449,2.719-3.032,5.409-4.708,7.998
		C462.688,330.619,458.519,334.038,453.628,330.622z"/>
	<path style="fill:#47821C;" d="M384.445,370.788c-0.403-4.181,1.848-8.124,5.967-8.946c18.174-3.631,34.836-12.607,48.186-25.958
		c2.971-2.971,7.785-2.97,10.753-0.001c2.971,2.97,2.971,7.784,0.001,10.753c-15.482,15.483-34.831,25.897-55.96,30.118
		C392.89,376.855,385.138,377.972,384.445,370.788z"/>
</g>
<circle style="fill:#FFF5CC;" cx="239.454" cy="256" r="145.682"/>
<path style="fill:#FFEB99;" d="M239.456,110.318c-9.358,0-18.507,0.893-27.374,2.579c67.37,12.81,118.306,72.003,118.306,143.101
	c0,71.099-50.936,130.291-118.306,143.102c8.867,1.686,18.016,2.579,27.374,2.579c80.458,0,145.681-65.224,145.681-145.682
	C385.138,175.542,319.914,110.318,239.456,110.318z"/>
<g>
	<path style="fill:#6A563D;" d="M254.453,172.354c0,8.282-2.195,28.896-14.997,28.896s-14.997-20.614-14.997-28.896
		s1.463-28.164,14.997-28.164C252.99,144.19,254.453,164.072,254.453,172.354z"/>
	<path style="fill:#6A563D;" d="M254.453,338.914c0,8.282-2.195,28.896-14.997,28.896s-14.997-20.614-14.997-28.896
		c0-8.282,1.463-28.164,14.997-28.164C252.99,310.75,254.453,330.631,254.453,338.914z"/>
	<path style="fill:#6A563D;" d="M190.914,186.249c5.856,5.856,18.88,21.985,9.828,31.036c-9.053,9.053-25.18-3.971-31.036-9.828
		c-5.856-5.856-18.881-20.949-9.311-30.519C169.965,167.369,185.057,180.393,190.914,186.249z"/>
	<path style="fill:#6A563D;" d="M308.689,304.025c5.856,5.856,18.88,21.985,9.828,31.036c-9.053,9.053-25.18-3.971-31.036-9.828
		c-5.856-5.856-18.881-20.949-9.311-30.519C287.74,285.143,302.832,298.169,308.689,304.025z"/>
	<path style="fill:#6A563D;" d="M155.811,241.003c8.282,0,28.896,2.195,28.896,14.997c0,12.802-20.614,14.997-28.896,14.997
		s-28.164-1.463-28.164-14.997C127.647,242.466,147.528,241.003,155.811,241.003z"/>
	<path style="fill:#6A563D;" d="M322.37,241.003c8.282,0,28.896,2.195,28.896,14.997c0,12.802-20.614,14.997-28.896,14.997
		c-8.282,0-28.164-1.463-28.164-14.997C294.206,242.466,314.087,241.003,322.37,241.003z"/>
	<path style="fill:#6A563D;" d="M169.706,304.542c5.856-5.856,21.985-18.88,31.036-9.828c9.053,9.053-3.971,25.18-9.828,31.036
		c-5.856,5.856-20.949,18.881-30.519,9.311C150.825,325.491,163.849,310.399,169.706,304.542z"/>
	<path style="fill:#6A563D;" d="M287.48,186.766c5.856-5.856,21.985-18.881,31.036-9.828c9.053,9.053-3.971,25.18-9.828,31.036
		c-5.856,5.856-20.949,18.881-30.519,9.311C268.6,207.717,281.624,192.624,287.48,186.766z"/>
</g>
<g>
	<path style="fill:#554431;" d="M318.518,335.057c5.25-5.25,3.071-12.878-0.825-19.504c-3.413,7.607-7.458,14.868-12.071,21.715
		C310.311,338.754,314.96,338.613,318.518,335.057z"/>
	<path style="fill:#554431;" d="M351.265,255.995c0-9.852-12.203-13.418-21.603-14.541c0.474,4.783,0.726,9.633,0.726,14.541
		c0,4.908-0.251,9.757-0.726,14.541C339.063,269.413,351.265,265.846,351.265,255.995z"/>
	<path style="fill:#554431;" d="M318.518,176.933c-3.557-3.558-8.207-3.698-12.896-2.211c4.613,6.848,8.658,14.109,12.071,21.716
		C321.589,189.811,323.768,182.184,318.518,176.933z"/>
</g>
<path d="M239.456,208.854c16.682,0,22.601-19.663,22.601-36.5c0-22.397-8.449-35.768-22.601-35.768
	c-14.151,0-22.601,13.371-22.601,35.768C216.856,189.192,222.775,208.854,239.456,208.854z M239.456,151.794
	c5.848,0,7.393,13.449,7.393,20.56c0,10.072-3.037,21.292-7.393,21.292c-4.357,0-7.393-11.22-7.393-21.292
	C232.064,165.242,233.609,151.794,239.456,151.794z"/>
<path d="M262.057,338.914c0-22.397-8.449-35.768-22.601-35.768c-6.298,0-21.099,3.105-22.506,31.872
	c-0.205,4.195,3.029,7.761,7.224,7.966c4.204,0.209,7.761-3.028,7.966-7.224c0.142-2.907,1.162-17.406,7.315-17.406
	c5.848,0,7.393,13.449,7.393,20.56c0,10.072-3.037,21.292-7.393,21.292c-0.648,0-2.369,0-4.292-4.171
	c-1.758-3.813-6.274-5.481-10.089-3.723c-3.814,1.758-5.481,6.275-3.722,10.089c5.218,11.323,13.582,13.013,18.102,13.013
	C256.138,375.414,262.057,355.752,262.057,338.914z"/>
<path d="M168.528,165.928c-5.152,0-9.824,1.949-13.51,5.634c-3.761,3.762-9.1,12.061-2.581,25.373
	c3.178,6.491,8.221,12.23,11.893,15.901c3.557,3.557,16.143,15.162,28.752,15.162c5.039,0,9.548-1.844,13.038-5.336
	c11.795-11.795,2.077-29.885-9.828-41.79C189.472,174.055,179.121,165.928,168.528,165.928z M195.366,211.909
	c-3.056,3.169-14.962-4.506-20.283-9.827c-2.337-2.336-13.985-15.313-9.311-19.765c3.657-3.484,13.393,2.937,19.766,9.311
	C192.658,198.747,198.389,208.773,195.366,211.909z"/>
<path d="M314.066,298.647c-6.818-6.817-17.17-14.944-27.764-14.944c-5.152,0-9.823,1.949-13.509,5.634
	c-10.007,10.005-6.526,25.435,9.31,41.274c3.558,3.557,16.144,15.162,28.752,15.162c5.04,0,9.548-1.844,13.038-5.335
	c3.636-3.637,8.75-11.773,2.142-25.41C322.191,307.092,315.902,300.484,314.066,298.647z M313.14,329.684
	c-3.406,3.972-14.962-4.506-20.282-9.826c-5.029-5.03-13.063-15.282-9.311-19.766c3.055-3.651,13.392,2.937,19.764,9.311
	c2.907,2.906,6.808,7.653,9.04,12.259C314.261,325.6,314.416,328.197,313.14,329.684z"/>
<path d="M192.31,256c0-16.682-19.662-22.601-36.499-22.601c-22.397,0-35.768,8.449-35.768,22.601
	c0,14.152,13.371,22.601,35.768,22.601C172.648,278.601,192.31,272.682,192.31,256z M135.25,256c0-5.848,13.449-7.393,20.56-7.393
	c10.071,0,21.291,3.036,21.291,7.393s-11.22,7.393-21.291,7.393C148.7,263.393,135.25,261.848,135.25,256z"/>
<path d="M286.602,256c0,14.152,13.371,22.601,35.768,22.601c16.837,0,36.5-5.919,36.5-22.601s-19.663-22.601-36.5-22.601
	C299.973,233.399,286.602,241.848,286.602,256z M343.663,256c0,4.357-11.22,7.393-21.292,7.393c-7.112,0-20.56-1.545-20.56-7.393
	s13.449-7.393,20.56-7.393C332.441,248.607,343.663,251.643,343.663,256z"/>
<path d="M193.081,284.002c-12.609,0-25.195,11.606-28.752,15.163c-15.837,15.838-19.317,31.266-9.311,41.273
	c3.685,3.685,8.357,5.634,13.51,5.634c10.594,0,20.945-8.127,27.764-14.944c11.906-11.906,21.624-29.995,9.828-41.791
	C202.628,285.846,198.121,284.002,193.081,284.002z M185.538,320.373c-6.373,6.373-16.109,14.088-19.766,9.311
	c-3.554-4.641,4.284-14.736,9.311-19.765c5.322-5.322,17.228-13.732,20.283-9.828C198.052,303.521,192.658,313.253,185.538,320.373z
	"/>
<path d="M286.303,228.297c10.594,0,20.944-8.127,27.764-14.944c1.836-1.837,8.125-8.443,11.972-16.381
	c6.607-13.636,1.493-21.774-2.142-25.41c-3.491-3.49-7.999-5.335-13.038-5.335c-12.608,0-25.195,11.607-28.752,15.163
	c-3.671,3.671-8.715,9.411-11.892,15.9c-6.519,13.312-1.18,21.61,2.581,25.372C276.479,226.349,281.151,228.297,286.303,228.297z
	 M283.87,203.978c2.376-4.852,6.651-9.497,8.988-11.834c5.322-5.323,17.13-13.059,20.282-9.828c1.368,1.401,1.119,4.084-0.789,8.024
	c-2.232,4.606-6.133,9.353-9.04,12.259c-6.372,6.373-15.629,13.241-19.765,9.311C282.814,211.213,281.156,209.519,283.87,203.978z"
	/>
<path d="M371.927,102.715H239.456c-24.121,0-46.954,5.608-67.276,15.576c-0.157-0.038-0.313-0.079-0.475-0.106
	c-8.224-1.418-16.665-2.138-25.085-2.138c-22.266,0-43.655,4.866-63.57,14.462c-3.783,1.823-5.296,6.333-3.549,10.152
	c2.622,5.73,9.107,4.102,10.151,3.55c30.39-16.069,59.485-12.93,60.743-12.894c-38.856,27.834-64.224,73.351-64.224,124.686
	c0,59.169,33.702,110.608,82.914,136.148c-7.382,1.27-14.887,1.928-22.464,1.928c-72.462-0.001-131.413-58.952-131.413-131.413
	c0-33.288,12.469-65.043,35.111-89.417c2.858-3.077,2.681-7.888-0.396-10.747c-3.077-2.858-7.888-2.68-10.747,0.396
	C13.913,190.093,0,225.524,0,262.665c0,80.846,65.773,146.62,146.62,146.62c15.709,0,31.156-2.476,45.935-7.348
	c14.789,4.764,30.548,7.348,46.901,7.348h132.471c77.236,0,140.073-62.836,140.073-140.074v-26.421
	C512,165.551,449.163,102.715,371.927,102.715z M101.379,256c0-76.136,61.941-138.077,138.077-138.077S377.534,179.865,377.534,256
	s-61.942,138.077-138.078,138.077S101.379,332.136,101.379,256z M496.792,269.211c0,68.851-56.014,124.866-124.865,124.866h-65.934
	c51.29-24.815,86.75-77.382,86.75-138.077s-35.46-113.262-86.75-138.077h65.934c68.851,0,124.865,56.015,124.865,124.866V269.211z"
	/>
<path d="M65.446,159.314c2.013-1.584,4.099-3.128,6.202-4.591c3.446-2.399,4.296-7.138,1.897-10.585
	c-2.399-3.445-7.139-4.298-10.585-1.896c-2.344,1.63-4.67,3.353-6.915,5.118c-3.301,2.596-3.81,7.328-1.276,10.677
	C58.804,163.372,64.053,160.41,65.446,159.314z"/>
<g>
</g>
<g>
</g>
<g>
</g>
<g>
</g>
<g>
</g>
<g>
</g>
<g>
</g>
<g>
</g>
<g>
</g>
<g>
</g>
<g>
</g>
<g>
</g>
<g>
</g>
<g>
</g>
<g>
</g>
</svg>
