<svg height="512pt" viewBox="0 -17 512.01537 512" width="512pt" xmlns="http://www.w3.org/2000/svg"><path d="m249.53125 412.253906c-12.648438 10.785156-27.226562 19.066406-42.96875 24.40625-15.660156 4.761719-31.953125 7.121094-48.324219 6.996094-16.390625.121094-32.710937-2.238281-48.398437-6.996094-42.453125-14.078125-74.035156-50.6875-89.601563-91.304687-25.558593-67.6875-8.914062-144.074219 42.488281-194.988281 15.863282-14.738282 34.8125-25.757813 55.464844-32.257813l86.53125 2.050781c18.167969 6.664063 34.800782 16.941406 48.894532 30.207032 16.558593 15.949218 29.683593 35.113281 38.570312 56.320312zm0 0" fill="#e91e63"/><path d="m503.480469 328.542969c0 77.761719-63.035157 140.800781-140.796875 140.800781-4.277344.015625-8.546875-.183594-12.800782-.597656-72.433593-6.695313-127.84375-67.460938-127.84375-140.203125 0-72.742188 55.410157-133.507813 127.84375-140.203125 4.253907-.414063 8.523438-.613282 12.800782-.597656 77.761718 0 140.796875 63.039062 140.796875 140.800781zm0 0" fill="#ad1457"/><path d="m477.882812 328.542969c0-77.433594-57.308593-140.203125-128-140.203125-70.695312 0-128 62.769531-128 140.203125 0 77.433593 57.304688 140.203125 128 140.203125 70.691407 0 128-62.769532 128-140.203125zm0 0" fill="#e91e63"/><path d="m469.347656 328.542969c-.078125 58.878906-47.789062 106.585937-106.664062 106.667969-4.28125.003906-8.554688-.253907-12.800782-.769532-53.582031-6.464844-93.890624-51.929687-93.890624-105.898437s40.308593-99.433594 93.890624-105.898438c4.246094-.515625 8.519532-.773437 12.800782-.769531 58.875.082031 106.585937 47.789062 106.664062 106.667969zm0 0" fill="#fec108"/><path d="m443.75 328.542969c0-58.484375-42.027344-105.898438-93.867188-105.898438-51.84375 0-93.867187 47.414063-93.867187 105.898438 0 58.488281 42.023437 105.898437 93.867187 105.898437 51.839844 0 93.867188-47.410156 93.867188-105.898437zm0 0" fill="#ffeb3a"/><path d="m145.082031 110.941406s-15.703125-61.363281 20.675781-100c2.734376-2.902344 7.234376-3.226562 10.359376-.75l11.777343 8.769532c4.085938 3.3125 5 9.179687 2.113281 13.578124-6.960937 10.554688-16.492187 33.84375-10.792968 78.402344zm0 0" fill="#795548"/><path d="m204.816406 119.476562c0-9.425781-19.105468-17.066406-42.667968-17.066406s-42.667969 7.640625-42.667969 17.066406c0 9.425782 19.105469 17.066407 42.667969 17.066407s42.667968-7.640625 42.667968-17.066407zm0 0" fill="#795548"/><path d="m512.015625 328.542969c.109375-51.761719-26.648437-99.875-70.683594-127.085938-44.03125-27.210937-99.03125-29.621093-145.277343-6.367187-9.027344-19.015625-21.40625-36.246094-36.550782-50.867188-13.710937-12.820312-29.675781-22.996094-47.085937-30.011718-2.933594-8.53125-12.859375-14.199219-25.199219-17.332032-4.078125-35.445312 4.183594-53.628906 9.71875-61.320312 2.757812-3.8125 3.847656-8.582032 3.023438-13.21875-.789063-4.585938-3.40625-8.652344-7.253907-11.269532l-11.785156-8.066406c-6.53125-4.539062-15.351563-3.859375-21.113281 1.621094-31.792969 30.996094-27.742188 75.265625-24.566406 92.664062-8.65625 1.722657-16.394532 6.519532-21.792969 13.5-21.039063 6.925782-40.335938 18.304688-56.585938 33.355469-53.765625 53.378907-71.210937 133.335938-44.558593 204.253907 17.789062 46.542968 53.246093 82.542968 94.863281 96.367187 16.585937 5.085937 33.855469 7.589844 51.199219 7.425781 17.238281.152344 34.394531-2.355468 50.867187-7.433594 13.96875-4.746093 27.082031-11.714843 38.828125-20.640624 40.214844 48.324218 106.40625 66.265624 165.523438 44.859374 59.113281-21.402343 98.476562-77.5625 98.429687-140.433593zm-340.710937-311.464844 11.777343 8.453125c-8.167969 11.359375-16.574219 32.429688-13.277343 68.601562-2.5625-.171874-5.121094-.28125-7.683594-.28125-3.351563 0-6.730469.160157-10.078125.460938-2.566407-14.269531-6.382813-52.132812 19.261719-77.234375zm-9.15625 93.863281c20.027343 0 31.71875 5.746094 33.917968 8.535156-2.199218 2.789063-13.890625 8.535157-33.917968 8.535157-20.027344 0-31.71875-5.746094-33.921876-8.535157 2.203126-2.789062 13.894532-8.535156 33.921876-8.535156zm41.726562 317.621094c-14.742188 4.5-30.085938 6.710938-45.5 6.5625-15.527344.164062-30.988281-2.050781-45.847656-6.5625-36.789063-12.203125-68.265625-44.449219-84.285156-86.253906-24.289063-64.457032-8.496094-137.167969 40.347656-185.738282 13.144531-12.128906 28.554687-21.546874 45.34375-27.707031 7.570312 11.09375 28.476562 16.214844 48.214844 16.214844 18.363281 0 37.75-4.457031 46.464843-13.988281 14.425781 6.136718 27.667969 14.753906 39.125 25.457031 13.949219 13.480469 25.296875 29.417969 33.476563 47.007813-33.289063 21.59375-56.582032 55.578124-64.710938 94.417968-8.125 38.835938-.410156 79.3125 21.429688 112.4375-10.300782 7.847656-21.800782 13.976563-34.058594 18.152344zm158.808594 32.246094c-73.050782 0-132.269532-59.214844-132.269532-132.265625 0-73.046875 59.21875-132.265625 132.269532-132.265625 73.046875 0 132.265625 59.21875 132.265625 132.265625-.082031 73.015625-59.25 132.1875-132.265625 132.265625zm0 0"/><path d="m362.683594 213.34375c-63.625 0-115.203125 51.574219-115.203125 115.199219s51.578125 115.199219 115.203125 115.199219c63.621094 0 115.199218-51.574219 115.199218-115.199219-.070312-63.59375-51.605468-115.128907-115.199218-115.199219zm0 213.332031c-39.691406 0-75.476563-23.910156-90.664063-60.578125-15.191406-36.671875-6.792969-78.878906 21.269531-106.945312 28.066407-28.066406 70.277344-36.460938 106.945313-21.273438 36.671875 15.191406 60.582031 50.972656 60.582031 90.664063-.0625 54.171875-43.960937 98.074219-98.132812 98.132812zm0 0"/><path d="m341.347656 281.609375c0 4.714844-3.820312 8.535156-8.53125 8.535156-4.714844 0-8.535156-3.820312-8.535156-8.535156 0-4.710937 3.820312-8.53125 8.535156-8.53125 4.710938 0 8.53125 3.820313 8.53125 8.53125zm0 0"/><path d="m358.414062 256.011719c0 4.710937-3.820312 8.53125-8.53125 8.53125-4.714843 0-8.535156-3.820313-8.535156-8.53125 0-4.714844 3.820313-8.535157 8.535156-8.535157 4.710938 0 8.53125 3.820313 8.53125 8.535157zm0 0"/><path d="m324.28125 264.542969c0 4.714843-3.820312 8.535156-8.53125 8.535156-4.714844 0-8.535156-3.820313-8.535156-8.535156 0-4.710938 3.820312-8.53125 8.535156-8.53125 4.710938 0 8.53125 3.820312 8.53125 8.53125zm0 0"/><path d="m315.75 290.144531c0 4.710938-3.820312 8.53125-8.535156 8.53125-4.710938 0-8.53125-3.820312-8.53125-8.53125 0-4.714843 3.820312-8.535156 8.53125-8.535156 4.714844 0 8.535156 3.820313 8.535156 8.535156zm0 0"/><path d="m298.683594 315.742188c0 4.714843-3.824219 8.535156-8.535156 8.535156-4.714844 0-8.535157-3.820313-8.535157-8.535156 0-4.710938 3.820313-8.53125 8.535157-8.53125 4.710937 0 8.535156 3.820312 8.535156 8.53125zm0 0"/><path d="m315.75 341.34375c0 4.710938-3.820312 8.53125-8.535156 8.53125-4.710938 0-8.53125-3.820312-8.53125-8.53125 0-4.714844 3.820312-8.535156 8.53125-8.535156 4.714844 0 8.535156 3.820312 8.535156 8.535156zm0 0"/><path d="m290.148438 349.875c0 4.714844-3.820313 8.535156-8.535157 8.535156-4.710937 0-8.53125-3.820312-8.53125-8.535156 0-4.710938 3.820313-8.53125 8.53125-8.53125 4.714844 0 8.535157 3.820312 8.535157 8.53125zm0 0"/><path d="m315.75 366.941406c0 4.714844-3.820312 8.535156-8.535156 8.535156-4.710938 0-8.53125-3.820312-8.53125-8.535156 0-4.710937 3.820312-8.53125 8.53125-8.53125 4.714844 0 8.535156 3.820313 8.535156 8.53125zm0 0"/><path d="m341.347656 401.078125c0 4.710937-3.820312 8.53125-8.53125 8.53125-4.714844 0-8.535156-3.820313-8.535156-8.53125 0-4.714844 3.820312-8.535156 8.535156-8.535156 4.710938 0 8.53125 3.820312 8.53125 8.535156zm0 0"/><path d="m366.949219 384.011719c0 4.710937-3.820313 8.53125-8.535157 8.53125-4.710937 0-8.53125-3.820313-8.53125-8.53125 0-4.714844 3.820313-8.535157 8.53125-8.535157 4.714844 0 8.535157 3.820313 8.535157 8.535157zm0 0"/><path d="m375.480469 409.609375c0 4.714844-3.820313 8.535156-8.53125 8.535156-4.714844 0-8.535157-3.820312-8.535157-8.535156 0-4.710937 3.820313-8.53125 8.535157-8.53125 4.710937 0 8.53125 3.820313 8.53125 8.53125zm0 0"/><path d="m392.546875 392.542969c0 4.714843-3.820313 8.535156-8.53125 8.535156-4.714844 0-8.535156-3.820313-8.535156-8.535156 0-4.710938 3.820312-8.53125 8.535156-8.53125 4.710937 0 8.53125 3.820312 8.53125 8.53125zm0 0"/><path d="m426.683594 384.011719c0 4.710937-3.824219 8.53125-8.535156 8.53125-4.714844 0-8.535157-3.820313-8.535157-8.53125 0-4.714844 3.820313-8.535157 8.535157-8.535157 4.710937 0 8.535156 3.820313 8.535156 8.535157zm0 0"/><path d="m418.148438 358.410156c0 4.710938-3.820313 8.53125-8.535157 8.53125-4.710937 0-8.53125-3.820312-8.53125-8.53125 0-4.714844 3.820313-8.535156 8.53125-8.535156 4.714844 0 8.535157 3.820312 8.535157 8.535156zm0 0"/><path d="m443.75 332.808594c0 4.714844-3.820312 8.535156-8.535156 8.535156-4.710938 0-8.53125-3.820312-8.53125-8.535156 0-4.710938 3.820312-8.53125 8.53125-8.53125 4.714844 0 8.535156 3.820312 8.535156 8.53125zm0 0"/><path d="m443.75 358.410156c0 4.710938-3.820312 8.53125-8.535156 8.53125-4.710938 0-8.53125-3.820312-8.53125-8.53125 0-4.714844 3.820312-8.535156 8.53125-8.535156 4.714844 0 8.535156 3.820312 8.535156 8.535156zm0 0"/><path d="m435.214844 290.144531c0 4.710938-3.820313 8.53125-8.53125 8.53125-4.714844 0-8.535156-3.820312-8.535156-8.53125 0-4.714843 3.820312-8.535156 8.535156-8.535156 4.710937 0 8.53125 3.820313 8.53125 8.535156zm0 0"/><path d="m409.613281 290.144531c0 4.710938-3.820312 8.53125-8.53125 8.53125-4.714843 0-8.535156-3.820312-8.535156-8.53125 0-4.714843 3.820313-8.535156 8.535156-8.535156 4.710938 0 8.53125 3.820313 8.53125 8.535156zm0 0"/><path d="m392.546875 264.542969c0 4.714843-3.820313 8.535156-8.53125 8.535156-4.714844 0-8.535156-3.820313-8.535156-8.535156 0-4.710938 3.820312-8.53125 8.535156-8.53125 4.710937 0 8.53125 3.820312 8.53125 8.53125zm0 0"/><path d="m418.148438 264.542969c0 4.714843-3.820313 8.535156-8.535157 8.535156-4.710937 0-8.53125-3.820313-8.53125-8.535156 0-4.710938 3.820313-8.53125 8.53125-8.53125 4.714844 0 8.535157 3.820312 8.535157 8.53125zm0 0"/><path d="m84.195312 193.136719c1.929688-2.363281 2.449219-5.574219 1.363282-8.425781-1.082032-2.847657-3.601563-4.90625-6.613282-5.390626-3.007812-.488281-6.050781.667969-7.976562 3.03125-16.273438 20.980469-26.085938 46.25-28.234375 72.71875-8.824219 79.359376 25.929687 123.878907 27.417969 125.738282 2.9375 3.6875 8.304687 4.292968 11.992187 1.355468 3.683594-2.941406 4.289063-8.308593 1.351563-11.996093-.316406-.398438-31.792969-41.25-23.800782-113.210938 1.8125-23.199219 10.324219-45.371093 24.5-63.820312zm0 0"/><path d="m108.175781 154.070312c-3.046875 1.128907-6 2.496094-8.832031 4.085938-3.417969 1.875-5.132812 5.828125-4.167969 9.605469.96875 3.773437 4.375 6.414062 8.273438 6.414062 1.429687 0 2.835937-.359375 4.085937-1.050781 2-1.117188 4.074219-2.09375 6.210938-2.917969 2.882812-.996093 5.015625-3.453125 5.59375-6.445312.582031-2.996094-.480469-6.070313-2.785156-8.070313-2.300782-2-5.496094-2.617187-8.378907-1.621094zm0 0"/></svg>