<?xml version="1.0" encoding="iso-8859-1"?>
<!-- Generator: Adobe Illustrator 19.0.0, SVG Export Plug-In . SVG Version: 6.00 Build 0)  -->
<svg version="1.1" id="Layer_1" xmlns="http://www.w3.org/2000/svg" xmlns:xlink="http://www.w3.org/1999/xlink" x="0px" y="0px"
	 viewBox="0 0 512 512" style="enable-background:new 0 0 512 512;" xml:space="preserve">
<circle style="fill:#3FC378;" cx="331.755" cy="271.674" r="172.408"/>
<path style="fill:#2B8C4A;" d="M436.978,135.104c22.465,29.114,35.838,65.605,35.838,105.223
	c0,95.218-77.19,172.408-172.408,172.408c-39.618,0-76.109-13.373-105.223-35.838c31.527,40.859,80.97,67.185,136.57,67.185
	c95.218,0,172.408-77.19,172.408-172.408C504.163,216.074,477.837,166.63,436.978,135.104z"/>
<path style="fill:#91DC5A;" d="M352.653,271.674c0,95.218-77.19,172.408-172.408,172.408S7.837,366.892,7.837,271.674H352.653z"/>
<path style="fill:#6DC82A;" d="M330.491,271.674c-10.315,85.362-83,151.51-171.144,151.51c-42.289,0-81.014-15.235-111.008-40.502
	c31.627,37.541,78.977,61.4,131.906,61.4c95.218,0,172.408-77.19,172.408-172.408H330.491z"/>
<path style="fill:#FF505D;" d="M321.306,271.674c0,77.905-63.156,141.061-141.061,141.061S39.184,349.579,39.184,271.674"/>
<path style="fill:#E21220;" d="M298.865,271.674c-10.099,67.995-68.714,120.163-139.518,120.163
	c-33.63,0-64.505-11.776-88.744-31.419c25.862,31.912,65.366,52.317,109.642,52.317c77.906,0,141.061-63.156,141.061-141.061
	H298.865z"/>
<path d="M340.862,91.658c3.169-9.24,11.939-15.902,22.24-15.902V60.082c-18.974,0-34.838,13.559-38.422,31.495
	c-87.982,3.419-161.234,70.301-171.849,158.259l15.561,1.878c7.464-61.85,48.856-112.289,104.192-133.628
	c-7.731,7.665-14.922,16.898-21.416,27.612c-19.336,31.905-30.46,73.602-31.63,118.137H0v7.837
	c0,99.388,80.857,180.245,180.245,180.245c46.243,0,88.469-17.511,120.411-46.242c0.938,3.714,1.913,7.227,2.923,10.498
	c2.289,7.419,4.75,13.657,7.397,18.743c-9.351-1.179-18.567-3.129-27.553-5.892l-4.606,14.982
	c17.076,5.25,34.887,7.911,52.939,7.911c99.388,0,180.245-80.857,180.245-180.245C512,175.341,436.035,96.417,340.862,91.658z
	 M264.57,153.824c12.728-21,28.178-35.414,44.857-42.226c-3.557,7.652-6.762,17.495-9.638,29.599
	c-6.771,28.496-11.094,67.341-12.169,109.377c-0.115,4.409-0.181,8.841-0.224,13.264h-52.185
	C236.364,222.152,246.685,183.337,264.57,153.824z M313.232,279.511c-4.071,69.826-62.159,125.388-132.987,125.388
	S51.329,349.337,47.258,279.511H313.232z M180.245,436.245c-88.12,0-160.285-69.612-164.388-156.735h15.695
	c4.089,78.474,69.218,141.061,148.692,141.061s144.602-62.587,148.692-141.061h15.694
	C340.53,366.633,268.364,436.245,180.245,436.245z M318.555,411.553c-1.717-5.562-3.338-11.9-4.838-18.871
	c29.049-32.012,46.773-74.478,46.773-121.009v-7.837h-57.418c0.043-4.288,0.107-8.585,0.217-12.861
	c1.049-40.985,5.221-78.686,11.75-106.156c7.369-31.005,15.177-37.717,16.716-37.717s9.348,6.711,16.716,37.717
	c6.529,27.471,10.701,65.171,11.75,106.156l15.667-0.4c-1.074-42.038-5.397-80.883-12.169-109.38
	c-2.877-12.104-6.081-21.947-9.638-29.599c16.681,6.813,32.13,21.227,44.857,42.226c19.004,31.355,29.469,73.209,29.469,117.85
	s-10.466,86.495-29.468,117.85c-12.727,20.998-28.176,35.412-44.854,42.225c2.543-5.478,4.909-12.08,7.107-19.837
	c6.386-22.539,10.993-53.191,13.324-88.639l-15.639-1.028c-2.228,33.877-6.76,64.204-12.764,85.394
	c-6.663,23.516-13.118,28.606-14.358,28.606C330.647,436.245,324.819,431.852,318.555,411.553z M390.967,425.221
	c7.717-7.657,14.894-16.876,21.375-27.573c20.467-33.77,31.739-78.508,31.739-125.974S432.81,179.47,412.343,145.7
	c-6.483-10.696-13.66-19.915-21.375-27.573c61.573,23.827,105.359,83.666,105.359,153.547S452.54,401.394,390.967,425.221z"/>
<rect x="172.408" y="365.715" width="15.673" height="15.673"/>
<rect x="223.347" y="352.061" transform="matrix(-0.5 -0.866 0.866 -0.5 35.1 740.0594)" width="15.673" height="15.673"/>
<rect x="260.634" y="314.774" transform="matrix(-0.866 -0.5 0.5 -0.866 339.6632 736.2351)" width="15.673" height="15.673"/>
<rect x="84.182" y="314.779" transform="matrix(0.866 -0.5 0.5 0.866 -148.9824 89.2348)" width="15.673" height="15.673"/>
<rect x="121.467" y="352.059" transform="matrix(-0.866 -0.5 0.5 -0.866 61.3309 736.2256)" width="15.673" height="15.673"/>
<g>
</g>
<g>
</g>
<g>
</g>
<g>
</g>
<g>
</g>
<g>
</g>
<g>
</g>
<g>
</g>
<g>
</g>
<g>
</g>
<g>
</g>
<g>
</g>
<g>
</g>
<g>
</g>
<g>
</g>
</svg>
